<?xml version="1.0" encoding="utf-8"?>
<!-- Generator: Adobe Illustrator 21.0.0, SVG Export Plug-In . SVG Version: 6.00 Build 0)  -->
<svg version="1.1" id="Layer_1" xmlns="http://www.w3.org/2000/svg" xmlns:xlink="http://www.w3.org/1999/xlink" x="0px" y="0px"
	 viewBox="0 0 445 150" style="enable-background:new 0 0 445 150;" xml:space="preserve">
<style type="text/css">
	.st0{fill:#FFFFFF;}
</style>
<g>
	<path class="st0" d="M52.9,103.6c10.9,0,19.3,8.1,19.3,18.8s-8.4,18.8-19.5,18.8h-15v-37.5L52.9,103.6L52.9,103.6z M42,137.1h10.9
		c8.4,0,14.9-6.3,14.9-14.6c0-8.4-6.6-14.7-15.1-14.7H42V137.1z"/>
	<path class="st0" d="M110.7,125.7c0,9.8-5.9,15.7-15.7,15.7c-9.9,0-15.8-5.9-15.8-15.7v-22.1h4.3v22.1c0,7.3,4.4,11.5,11.5,11.5
		c7.1,0,11.4-4.2,11.4-11.5v-22.1h4.3C110.7,103.6,110.7,125.7,110.7,125.7z"/>
	<path class="st0" d="M144.2,106.9l-1.8,4c-3.4-2.3-7.3-3.2-10.3-3.2c-4.8,0-8,1.8-8,5c0,9.7,21.1,4.6,21.1,18.2
		c0,6.3-5.5,10.3-13.6,10.3c-5.5,0-10.8-2.4-14.4-5.7l1.9-3.9c3.5,3.4,8.3,5.3,12.5,5.3c5.4,0,8.8-2.2,8.8-5.8
		c0.1-9.9-21.1-4.6-21.1-18.1c0-5.9,5.2-9.7,13-9.7C136.7,103.4,141.1,104.8,144.2,106.9z"/>
	<path class="st0" d="M165.4,107.7v33.4h-4.3v-33.4h-12.2v-4.1h28.8v4.1C177.7,107.7,165.4,107.7,165.4,107.7z"/>
	<path class="st0" d="M197.2,141.1H193v-12.7l-14.5-24.8h4.5l12.2,19.6l12-19.6h4.4l-14.3,24.7L197.2,141.1L197.2,141.1z"/>
	<path class="st0" d="M248.9,129.2c-0.8,0.1-1.7,0.1-2.5,0.1h-10v11.8h-4.3v-37.5h14.3c9.4,0,14.8,4.6,14.8,12.6
		c0,6.2-3,10.4-8.4,12.2l8.8,12.8h-5L248.9,129.2z M246.2,125.2c6.8,0,10.7-3,10.7-8.8c0-5.7-3.9-8.6-10.7-8.6h-10v17.4H246.2z"/>
	<path class="st0" d="M297.7,141.1v-16.5h-22.6v16.5h-4.3v-37.5h4.3v16.9h22.6v-16.9h4.3v37.5H297.7z"/>
	<path class="st0" d="M313.4,141.1v-37.5h4.3v37.5H313.4z"/>
	<path class="st0" d="M355.9,141.1L333.3,111v30.1H329v-37.5h4.5l22.5,30.2v-30.2h4.2v37.5H355.9z"/>
	<path class="st0" d="M407.4,122.4c0,10.6-8.7,19-19.6,19c-11,0-19.7-8.4-19.7-19s8.7-18.9,19.7-18.9
		C398.8,103.5,407.4,111.8,407.4,122.4z M372.5,122.4c0,8.3,7,14.9,15.3,14.9c8.4,0,15.2-6.6,15.2-14.9s-6.9-14.8-15.2-14.8
		C379.5,107.6,372.5,114.1,372.5,122.4z"/>
</g>
<g>
	<path class="st0" d="M247.4,34.7c1.4,2.2,4.7,8,13.5,12.6c8.5,4.5,17.2,6,18.4,6.2c0.8,1.7,0.6,6.4,0.4,8c-0.1,1.6-1.3,7.3-2,8.2
		c-1.1,0.6-12,2.7-16.4,3s-12.8,0.8-19.8-0.7c-7.1-1.5-9.4-3.3-10.5-4c-0.7-1.7-2.2-10-0.5-16.1C232.2,45.8,237.4,37.2,247.4,34.7z"
		/>
	<path class="st0" d="M265.1,42.7c0,0,2-3.9,2.9-6.7c1-3,1.5-7,1.3-8.5c-0.1-0.9-0.7-0.3-1.4,1c-1,1.9-4.5,6.5-5.9,8.1
		c-2.3,2.7-4.1,4.3-4.7,5.1c0.1,0.4,6.2,4.8,9.7,6.1c3.4,1.3,8.4,2.6,10.7,2.9c2.2-2.3,4.9-6.8,6.8-9.7c2-3.1,4.9-10.4,6.1-14.6
		s2.4-9.7,1.7-10.2c-0.7-0.1-1.3,2.9-5.3,8.9c-2.2,3.2-5.3,7.1-7.6,9.4C277.5,36.1,270.2,42.2,265.1,42.7z"/>
	<path class="st0" d="M215.8,70.2c0.2-0.1,0.1-0.5,0-0.9c-0.4-1.4-1.2-3.9-1.5-6.5c-0.6-4.9-0.3-11.9,2-17c2.6-5.5,8.1-10.6,15.2-13
		c5.7-1.9,9.6-2.6,14.6-3c0.6,0,0.5-0.6-0.1-1c-0.7-0.4-1.8-1.8-2.1-2.3c-1-1.7-2-4.6-1.8-6.8c0.1-0.8-0.6-0.6-1.3-0.6
		c-0.6,0-2.5-0.2-3.8-0.4c-1-0.2-4.7-1-8.3-3c-4.9-2.8-5.9-4.6-6.3-4.7c-0.7,0-4.4,5.1-6.8,10c-2.6,5.2-5.8,13.7-6.9,26
		c-1,11.6,0.7,22.8,0.8,23.4c0,0.2,0.2,0.9,0.7,0.8C211.7,71,214.2,70.5,215.8,70.2z"/>
	<path class="st0" d="M179.5,17.7c0.9,3.2,3,9.6,1.3,18.8c-1.6,8.8-4.2,12.2-5.6,15.1c6.1,8.7,22.3,6.8,24.8,6.2
		c0.5-6.8,1.6-14.6,4.4-25c2.7-10.3,7.7-19.8,12.5-24.1c-6,3.5-14,6.2-19,7.1C192.9,16.7,185.3,17.8,179.5,17.7z"/>
	<path class="st0" d="M159.3,20c-1,0.9-4.9,6.5-5.8,9.1c-0.9,2.5-2,6.1,1.1,11.4c2.7,4.8,4,9.8,2.3,18.2c-0.2,1.2-0.6,2-0.1,2.3
		c1.5,0.7,4.6,0.3,5.3,0.2c0.5-0.1,0.8-0.8,1.4-1.6c1.7-2.4,7.2-12.1,9.6-18.5c2.2-5.7,3.5-10.3,3.2-15.7c-0.3-4.5-2.5-6.7-3.1-6.8
		c-0.7,0.3-3,1.9-6.2,2c-3.2,0.2-5-0.2-6.5-0.6C159.5,19.7,159.7,19.7,159.3,20z"/>
</g>
</svg>
